<svg width="110" height="48" viewBox="0 0 110 48" fill="none" xmlns="http://www.w3.org/2000/svg">
<path d="M21.3741 24.5972C22.0545 24.5972 22.4798 25.3338 22.1396 25.923L17.5843 33.813C17.2441 34.4023 16.3935 34.4023 16.0533 33.813L11.498 25.923C11.1578 25.3338 11.5831 24.5972 12.2635 24.5972L21.3741 24.5972Z" fill="#7258A6"/>
<path d="M26.5975 22.7985C25.917 22.7985 25.4918 22.0619 25.832 21.4727L30.3873 13.5827C30.7275 12.9934 31.578 12.9934 31.9182 13.5827L36.4735 21.4727C36.8137 22.0619 36.3885 22.7985 35.708 22.7985L26.5975 22.7985Z" fill="#7258A6"/>
<path d="M24.6407 20.7563C24.3012 21.346 23.4507 21.347 23.1098 20.7581L18.5452 12.8735C18.2043 12.2847 18.6286 11.5476 19.3091 11.5468L28.4196 11.536C29.1001 11.5352 29.5262 12.2713 29.1867 12.8609L24.6407 20.7563Z" fill="#AC90E3"/>
<path d="M16.0908 13.7837C16.4303 13.194 17.2809 13.193 17.6218 13.7819L22.1864 21.6665C22.5273 22.2553 22.1029 22.9924 21.4225 22.9932L12.3119 23.004C11.6315 23.0048 11.2054 22.2687 11.5449 21.6791L16.0908 13.7837Z" fill="#7258A6"/>
<path d="M32.5427 33.4704C32.2032 34.06 31.3527 34.061 31.0117 33.4722L26.4471 25.5876C26.1062 24.9987 26.5306 24.2617 27.211 24.2609L36.3216 24.2501C37.002 24.2493 37.4281 24.9853 37.0886 25.575L32.5427 33.4704Z" fill="#7258A6"/>
<path d="M75.2273 11.6061H81.003L73.5734 32.2071H67.9005L60.5224 11.6061H66.5626L70.8478 26.8021L75.2273 11.6061Z" fill="white"/>
<path d="M88.0364 11.6061H82.581V32.2071H88.0364V11.6061Z" fill="white"/>
<path d="M89.6517 32.2071L96.6735 21.7741L89.9533 11.644H96.5412L99.9779 17.6109L103.336 11.644H109.74L102.982 21.683L110 32.2071H103.299L99.7606 26.0133L96.1823 32.2071H89.6517Z" fill="white"/>
<path d="M56.0633 22.5776C56.0633 20.3955 55.6613 18.723 54.8574 17.5602C54.0535 16.383 52.8978 15.7944 51.3905 15.7944C49.8687 15.7944 48.7059 16.383 47.902 17.5602C47.098 18.723 46.6961 20.3955 46.6961 22.5776C46.6961 24.7597 47.098 26.4393 47.902 27.6165C48.7059 28.7794 49.8687 29.3608 51.3905 29.3608C52.8978 29.3608 54.0535 28.7794 54.8574 27.6165C55.6613 26.4393 56.0633 24.7597 56.0633 22.5776ZM61.3391 22.5776C61.3391 24.1424 61.1238 25.5923 60.6931 26.9274C60.2768 28.2625 59.6523 29.4182 58.8196 30.3944C57.987 31.3706 56.9462 32.1386 55.6972 32.6985C54.4626 33.2584 53.027 33.5383 51.3905 33.5383C49.7826 33.5383 48.3614 33.2584 47.1267 32.6985C45.8921 32.1386 44.8513 31.3706 44.0043 30.3944C43.1573 29.4182 42.5113 28.2625 42.0663 26.9274C41.6356 25.5923 41.4203 24.1424 41.4203 22.5776C41.4203 21.0128 41.6356 19.5629 42.0663 18.2278C42.5113 16.8927 43.1573 15.737 44.0043 14.7608C44.8513 13.7703 45.8921 13.0022 47.1267 12.4567C48.3614 11.8968 49.7826 11.6169 51.3905 11.6169C53.027 11.6169 54.4626 11.8968 55.6972 12.4567C56.9462 13.0022 57.987 13.7703 58.8196 14.7608C59.6523 15.737 60.2768 16.8927 60.6931 18.2278C61.1238 19.5629 61.3391 21.0128 61.3391 22.5776Z" fill="white"/>
<rect x="57.5717" y="14.8996" width="3.24185" height="18.3076" transform="rotate(50.4819 57.5717 14.8996)" fill="white"/>
</svg>
